<svg height="512pt" viewBox="0 0 512 512" width="512pt" xmlns="http://www.w3.org/2000/svg"><path d="m512 256c0 141.386719-114.613281 256-256 256s-256-114.613281-256-256 114.613281-256 256-256 256 114.613281 256 256zm0 0" fill="#4088c9"/><path d="m256 512c141.386719 0 256-114.613281 256-256s-114.613281-256-256-256zm0 0" fill="#1d598f"/><path d="m453.703125 256c0 109.191406-88.511719 197.703125-197.703125 197.703125s-197.703125-88.511719-197.703125-197.703125 88.511719-197.703125 197.703125-197.703125 197.703125 88.511719 197.703125 197.703125zm0 0" fill="#f2f6ff"/><path d="m256 453.703125c109.1875 0 197.703125-88.515625 197.703125-197.703125s-88.515625-197.703125-197.703125-197.703125zm0 0" fill="#b7c9fa"/><path d="m260.429688 359.5625c0 8.539062-6.921876 15.464844-15.460938 15.464844s-15.460938-6.925782-15.460938-15.464844 6.921876-15.460938 15.460938-15.460938 15.460938 6.921876 15.460938 15.460938zm0 0" fill="#ffbc4f"/><path d="m253.863281 120.898438c-27.84375 0-52.820312 16.5625-63.628906 42.1875-3.222656 7.636718.355469 16.433593 7.988281 19.652343 7.632813 3.222657 16.433594-.355469 19.652344-7.992187 6.109375-14.488282 20.238281-23.847656 35.988281-23.847656 21.554688 0 39.085938 17.527343 39.085938 39.070312 0 22.078125-11.335938 30.167969-27.027344 41.359375-15.863281 11.320313-35.605469 25.40625-35.605469 56.210937v28.625c0 8.285157 6.714844 15 15 15s15-6.714843 15-15v-28.625c0-14.671874 7.898438-20.988281 23.03125-31.785156 16.710938-11.925781 39.601563-28.257812 39.601563-65.785156 0-38.085938-30.988281-69.070312-69.085938-69.070312zm0 0" fill="#ffbc4f"/><path d="m256 150.96875c20.5625 1.109375 36.949219 18.171875 36.949219 39 0 22.082031-11.335938 30.167969-27.027344 41.363281-3.210937 2.292969-6.582031 4.703125-9.917969 7.339844l-.039062 88.042969c2.6875-2.710938 4.351562-6.429688 4.351562-10.546875v-28.628907c0-14.671874 7.898438-20.988281 23.03125-31.785156 16.714844-11.925781 39.601563-28.257812 39.601563-65.785156 0-37.371094-29.839844-67.890625-66.949219-69.023438zm0 0" fill="#ff7d4f"/></svg>